/* XPM */
static char * C:\Users\kenny\Desktop\ignitecoin32_xpm[] = {
"32 32 524 2",
"  	c None",
". 	c #180214",
"+ 	c #210813",
"@ 	c #381F13",
"# 	c #200813",
"$ 	c #88661F",
"% 	c #CA902A",
"& 	c #DB8530",
"* 	c #E17936",
"= 	c #DF6A34",
"- 	c #DC6436",
"; 	c #D15633",
"> 	c #B93C2F",
", 	c #921C26",
"' 	c #3F0618",
") 	c #2E0516",
"! 	c #777476",
"~ 	c #241621",
"{ 	c #A37C23",
"] 	c #E78F30",
"^ 	c #D62A34",
"/ 	c #C52231",
"( 	c #A41B2A",
"_ 	c #911726",
": 	c #8B1826",
"< 	c #951827",
"[ 	c #AC1C2B",
"} 	c #CA2232",
"| 	c #CF2333",
"1 	c #991928",
"2 	c #510A1A",
"3 	c #180215",
"4 	c #3A3238",
"5 	c #C6C4C5",
"6 	c #CBCBCE",
"7 	c #160314",
"8 	c #C89726",
"9 	c #D62F34",
"0 	c #B51E2E",
"a 	c #1F0315",
"b 	c #220315",
"c 	c #821423",
"d 	c #C82231",
"e 	c #C92232",
"f 	c #C42131",
"g 	c #3C0618",
"h 	c #5B565A",
"i 	c #DEDCDE",
"j 	c #95989D",
"k 	c #233449",
"l 	c #1E2234",
"m 	c #3B2617",
"n 	c #CD5231",
"o 	c #C72231",
"p 	c #450819",
"q 	c #615D60",
"r 	c #7D7A7C",
"s 	c #686467",
"t 	c #21131E",
"u 	c #390517",
"v 	c #B11D2D",
"w 	c #B9202F",
"x 	c #AC1C2C",
"y 	c #595458",
"z 	c #E0DEE0",
"A 	c #72767D",
"B 	c #212C40",
"C 	c #1F2538",
"D 	c #1B1727",
"E 	c #6A111F",
"F 	c #901726",
"G 	c #6E101F",
"H 	c #210416",
"I 	c #2A1F28",
"J 	c #E2E0E1",
"K 	c #FFFDFE",
"L 	c #D9D6D8",
"M 	c #1F101C",
"N 	c #190214",
"O 	c #420819",
"P 	c #AD1D2C",
"Q 	c #690F1E",
"R 	c #4C474B",
"S 	c #352D34",
"T 	c #190314",
"U 	c #5C4B44",
"V 	c #897464",
"W 	c #9F8774",
"X 	c #5B4B43",
"Y 	c #430B1A",
"Z 	c #604D45",
"` 	c #AAA5A3",
" .	c #21121D",
"..	c #514B4F",
"+.	c #6A6669",
"@.	c #5F5B5E",
"#.	c #878486",
"$.	c #3E373C",
"%.	c #620E1D",
"&.	c #B01D2C",
"*.	c #412B18",
"=.	c #B58924",
"-.	c #D2982A",
";.	c #976F26",
">.	c #54443E",
",.	c #A38B78",
"'.	c #B79D86",
").	c #B89F89",
"!.	c #A7998F",
"~.	c #6F6969",
"{.	c #2F0617",
"].	c #5C443F",
"^.	c #B29882",
"/.	c #CDC0B7",
"(.	c #4E413A",
"_.	c #D6C8BF",
":.	c #D6CCC5",
"<.	c #8F8D8E",
"[.	c #D8D6D7",
"}.	c #C1BFC0",
"|.	c #160214",
"1.	c #C22131",
"2.	c #736E71",
"3.	c #CE9B28",
"4.	c #DE6B32",
"5.	c #A71C2B",
"6.	c #5B4F4B",
"7.	c #B29983",
"8.	c #B89E87",
"9.	c #766358",
"0.	c #380517",
"a.	c #7E6B5C",
"b.	c #CABFB7",
"c.	c #594941",
"d.	c #C1AC9A",
"e.	c #8C898B",
"f.	c #DFDDDE",
"g.	c #DEDCDD",
"h.	c #AF1E2D",
"i.	c #6E0F1F",
"j.	c #B2B0B2",
"k.	c #251016",
"l.	c #EBA52D",
"m.	c #B71F2E",
"n.	c #B6ACA6",
"o.	c #CBBAAC",
"p.	c #BAA18C",
"q.	c #B19782",
"r.	c #170514",
"s.	c #881725",
"t.	c #867263",
"u.	c #BBA38F",
"v.	c #BFB8B6",
"w.	c #2C1D21",
"x.	c #594842",
"y.	c #645349",
"z.	c #433A3C",
"A.	c #E3E1E2",
"B.	c #290315",
"C.	c #4E0A1B",
"D.	c #7B7A7E",
"E.	c #C4C1C3",
"F.	c #6A481F",
"G.	c #E07A31",
"H.	c #871524",
"I.	c #C3B8B1",
"J.	c #B59B85",
"K.	c #3B2D2D",
"L.	c #47091A",
"M.	c #831524",
"N.	c #67564C",
"O.	c #B0A6A0",
"P.	c #44393A",
"Q.	c #B1A299",
"R.	c #C7BFBA",
"S.	c #C4BDB9",
"T.	c #959292",
"U.	c #645F62",
"V.	c #8D8A8C",
"W.	c #393135",
"X.	c #A9978B",
"Y.	c #AA927D",
"Z.	c #50413B",
"`.	c #1C192B",
" +	c #D9D8DA",
".+	c #332B31",
"++	c #441B1A",
"@+	c #2C0415",
"#+	c #190518",
"$+	c #19081A",
"%+	c #B1ABA9",
"&+	c #CAB9AD",
"*+	c #C1B3A9",
"=+	c #B5A9A1",
"-+	c #7D7574",
";+	c #310617",
">+	c #3B0617",
",+	c #A18976",
"'+	c #C5B4A7",
")+	c #362B30",
"!+	c #68574E",
"~+	c #AFA49D",
"{+	c #D7C9BF",
"]+	c #D4CAC4",
"^+	c #392A2C",
"/+	c #AFAFB3",
"(+	c #908D8F",
"_+	c #B9B7B8",
":+	c #595C65",
"<+	c #233247",
"[+	c #362D34",
"}+	c #2E252C",
"|+	c #BB202F",
"1+	c #B21D2D",
"2+	c #8C7767",
"3+	c #846F61",
"4+	c #705E53",
"5+	c #443533",
"6+	c #ACA6A3",
"7+	c #D3C5BB",
"8+	c #8D7767",
"9+	c #747478",
"0+	c #BEBCBE",
"a+	c #DBDADB",
"b+	c #29394D",
"c+	c #1F2537",
"d+	c #2B2129",
"e+	c #524847",
"f+	c #6B0F1F",
"g+	c #4B2F2F",
"h+	c #867162",
"i+	c #8F7A69",
"j+	c #917B6A",
"k+	c #28171F",
"l+	c #403130",
"m+	c #3C2D2D",
"n+	c #AC937E",
"o+	c #AB937E",
"p+	c #2B2632",
"q+	c #D4D2D4",
"r+	c #827F82",
"s+	c #1F293D",
"t+	c #233448",
"u+	c #20293C",
"v+	c #4C474A",
"w+	c #A09793",
"x+	c #BFAEA1",
"y+	c #B79E87",
"z+	c #A58D79",
"A+	c #897565",
"B+	c #8D8887",
"C+	c #2F2227",
"D+	c #564B49",
"E+	c #826F60",
"F+	c #AF9680",
"G+	c #AD9682",
"H+	c #1A0E20",
"I+	c #D7D5D7",
"J+	c #180315",
"K+	c #696568",
"L+	c #D9D1CC",
"M+	c #B9A08A",
"N+	c #C3AF9E",
"O+	c #CCBBAD",
"P+	c #E4DCD6",
"Q+	c #C9B7A8",
"R+	c #917B6B",
"S+	c #666264",
"T+	c #C6B9B1",
"U+	c #B99F89",
"V+	c #968983",
"W+	c #1A1223",
"X+	c #D7D6D7",
"Y+	c #484246",
"Z+	c #AAA4A2",
"`+	c #DCD5D2",
" @	c #E9E1DD",
".@	c #D9CDC4",
"+@	c #B89F88",
"@@	c #69574D",
"#@	c #440819",
"$@	c #240315",
"%@	c #524D51",
"&@	c #C4B9B2",
"*@	c #B89E88",
"=@	c #C4B0A0",
"-@	c #A89E9A",
";@	c #1F0F1C",
">@	c #1A1628",
",@	c #D6D5D7",
"'@	c #1D0315",
")@	c #BA372E",
"!@	c #D68330",
"~@	c #CF7D2C",
"{@	c #D37A31",
"]@	c #C0512E",
"^@	c #7A1221",
"/@	c #1B0817",
"(@	c #7E7A7C",
"_@	c #ACA5A3",
":@	c #BFB3AC",
"<@	c #CCBEB4",
"[@	c #CBBAAD",
"}@	c #BAA696",
"|@	c #452C2C",
"1@	c #650F1F",
"2@	c #3D363B",
"3@	c #6D696B",
"4@	c #404451",
"5@	c #D2D0D1",
"6@	c #9A6127",
"7@	c #9B5F27",
"8@	c #561A1A",
"9@	c #BC632B",
"0@	c #7A5C1F",
"a@	c #190618",
"b@	c #2B1D20",
"c@	c #805F20",
"d@	c #B4712A",
"e@	c #B65A2C",
"f@	c #620D1D",
"g@	c #170213",
"h@	c #504A4E",
"i@	c #747072",
"j@	c #4A4344",
"k@	c #200315",
"l@	c #270416",
"m@	c #1D1C2D",
"n@	c #868990",
"o@	c #B6B4B5",
"p@	c #301D16",
"q@	c #895924",
"r@	c #B4692D",
"s@	c #DF7C32",
"t@	c #9E7621",
"u@	c #1E2032",
"v@	c #20293D",
"w@	c #593E1B",
"x@	c #CB6A30",
"y@	c #C0542E",
"z@	c #493319",
"A@	c #B21E2D",
"B@	c #190A1B",
"C@	c #19091B",
"D@	c #BCBDC1",
"E@	c #7F7C7E",
"F@	c #888587",
"G@	c #5A4320",
"H@	c #906D21",
"I@	c #233146",
"J@	c #8B681F",
"K@	c #DA5233",
"L@	c #DAA429",
"M@	c #473119",
"N@	c #320617",
"O@	c #831423",
"P@	c #680F1E",
"Q@	c #4E0B1B",
"R@	c #3E0618",
"S@	c #3D0719",
"T@	c #1C1B2C",
"U@	c #5C616B",
"V@	c #212A3D",
"W@	c #233348",
"X@	c #29384C",
"Y@	c #DCDBDD",
"Z@	c #1E0E1B",
"`@	c #BEBCBD",
" #	c #94969B",
".#	c #20283A",
"+#	c #20273A",
"@#	c #28364A",
"##	c #64676F",
"$#	c #919092",
"%#	c #372417",
"&#	c #AF8622",
"*#	c #C49729",
"=#	c #B38923",
"-#	c #513A1A",
";#	c #A91C2B",
">#	c #D52434",
",#	c #AE1D2C",
"'#	c #1B1325",
")#	c #565B67",
"!#	c #CDCDD1",
"~#	c #BFC0C4",
"{#	c #7E828A",
"]#	c #999BA1",
"^#	c #B3B0B2",
"/#	c #4F494D",
"(#	c #E1E0E2",
"_#	c #8C8F95",
":#	c #A4A6AC",
"<#	c #E8E7E8",
"[#	c #B6B7BA",
"}#	c #222A3C",
"|#	c #1D1F31",
"1#	c #1B1526",
"2#	c #1B0315",
"3#	c #831625",
"4#	c #C22130",
"5#	c #A31A2A",
"6#	c #650D1E",
"7#	c #5F656F",
"8#	c #B7B9BD",
"9#	c #C3C4C7",
"0#	c #B8BABE",
"a#	c #CCCDD0",
"b#	c #384354",
"c#	c #DEDDDF",
"d#	c #3F373D",
"e#	c #A6A3A5",
"f#	c #F1F0F1",
"g#	c #D8D8DB",
"h#	c #73777F",
"i#	c #424B5A",
"j#	c #BDBEC2",
"k#	c #82858C",
"l#	c #27384C",
"m#	c #202B3F",
"n#	c #1C1A2B",
"o#	c #180517",
"p#	c #212C3F",
"q#	c #84888F",
"r#	c #C1C2C6",
"s#	c #D8D9DC",
"t#	c #CACBCE",
"u#	c #D0D1D4",
"v#	c #364253",
"w#	c #C1C2C5",
"x#	c #999697",
"y#	c #1A0616",
"z#	c #CECCCE",
"A#	c #9D9FA4",
"B#	c #25354A",
"C#	c #CFCFD3",
"D#	c #A3A5AA",
"E#	c #7F838B",
"F#	c #515865",
"G#	c #212E43",
"H#	c #202D41",
"I#	c #212F43",
"J#	c #555B67",
"K#	c #898D93",
"L#	c #CECFD2",
"M#	c #C7C8CC",
"N#	c #D0D1D5",
"O#	c #D5D6D9",
"P#	c #B6B9BC",
"Q#	c #565E69",
"R#	c #A1A3A8",
"S#	c #C5C3C4",
"T#	c #332A31",
"U#	c #909399",
"V#	c #D3D3D6",
"W#	c #C9CACE",
"X#	c #D0D0D4",
"Y#	c #D6D7D9",
"Z#	c #D2D3D6",
"`#	c #B9BABE",
" $	c #C6C7CA",
".$	c #B8B9BD",
"+$	c #B4B5BA",
"@$	c #AAACB0",
"#$	c #C8C9CD",
"$$	c #D1D2D5",
"%$	c #A8AAAF",
"&$	c #223449",
"*$	c #A3A4AA",
"=$	c #D0CED0",
"-$	c #271C25",
";$	c #322930",
">$	c #CDCBCC",
",$	c #8F9298",
"'$	c #B1B2B6",
")$	c #CBCCCF",
"!$	c #B7B8BC",
"~$	c #B5B6BA",
"{$	c #C2C3C7",
"]$	c #C0C1C5",
"^$	c #BBBCC0",
"/$	c #AFB1B5",
"($	c #ADAFB3",
"_$	c #D4D4D7",
":$	c #C9CACD",
"<$	c #48515E",
"[$	c #3D4857",
"}$	c #C4C5C8",
"|$	c #271B24",
"1$	c #190315",
"2$	c #A19EA0",
"3$	c #E2E0E2",
"4$	c #606670",
"5$	c #9FA1A6",
"6$	c #9C9FA4",
"7$	c #989A9F",
"8$	c #DDDDE0",
"9$	c #4A5260",
"0$	c #A5A7AC",
"a$	c #565D69",
"b$	c #303D50",
"c$	c #A1A2A7",
"d$	c #E0DFE0",
"e$	c #969395",
"f$	c #464044",
"g$	c #B7B4B6",
"h$	c #92949A",
"i$	c #5B616D",
"j$	c #243549",
"k$	c #5C626D",
"l$	c #92959B",
"m$	c #C4C4C8",
"n$	c #DFDEE0",
"o$	c #B1AEB0",
"p$	c #3C353A",
"q$	c #20111D",
"r$	c #817D80",
"s$	c #B6B3B5",
"t$	c #D1CFD0",
"u$	c #DCDBDC",
"v$	c #DCDADC",
"w$	c #D0CECF",
"x$	c #B3B1B2",
"y$	c #7C787B",
"                                                                ",
"                        . . . + @ # . . . . .                   ",
"                    . . $ % & * = - ; > , ' . ) .               ",
"                . ! ~ { ] ^ / ( _ : < [ } | _ 1 2 .             ",
"            3 4 5 6 7 8 9 0 a . . . . . b c d e f g             ",
"          . h i j k l m n o p . . . q r s t u v w x . 3         ",
"          y z A B C D . E F G . H I J K K L M N O P Q .         ",
"        . R S . . T U V W X . Y Z `  ...+.@.#.$.. %.&.. .       ",
"      . *.=.-.;.>.,.'.).!.~.{.].^./.(._.:.<.[.}.. |.1.) 2..     ",
"      . 3.4.5.6.7.8.'.9.. . 0.a.'.b.c.'.d.e.f.g.. . h.i.j.h     ",
"    . k.l.m.. n.o.p.q.r.. . s.t.u.v.w.x.y.z.g.A.. . B.C.D.E..   ",
"  . . F.G.H.. I.'.'.J.K.L.. M.N.O.P.Q.R.S.T.U.V.W.X.Y.Z.`. +.+  ",
"  . . ++@+#+$+%+&+*+=+-+. . ;+H.>+,+'.'.'.'+)+!+. ~+{+]+^+/+(+  ",
"  . _+:+B <+`.[+}+. . . . . b |+1+2+'.'.'.3+4+5+. 6+7+'.8+9+0+. ",
"  . a+b+k k c+. . . . . . d+e+N f+g+h+i+j+k+l+. m+n+'.'.o+p+q+. ",
"  . r+s+<+t+u+. . . . v+w+x+y+z+A+B+C+. . . D+E+F+'.'.'.G+H+I+. ",
"  . . . . J+. . . . K+L+M+'.N+O+P+Q+R+. . . S+T+'.'.'.U+V+W+X+. ",
"  . . . . . . . . . . Y+Z+`+ @.@+@'.'.@@#@$@. %@&@*@=@-@;@>@,@. ",
". . . '@)@!@~@{@]@^@. . . /@(@_@:@<@[@}@|@1@. . 2@Z+3@. . 4@5@. ",
"6@7@8@. 9@0@a@b@c@d@e@f@. . . . . g@h@i@j@k@H.l@. . . . m@n@o@. ",
". p@q@r@s@t@u@k v@. w@x@y@z@. . . . . . . p A@. B@. C@C k D@E@  ",
"    . F@G@H@J+I@k `.. J@K@L@M@N@< O@P@Q@R@S@R@T@U@V@W@k X@Y@Z@  ",
"    . `@ #.#+#@###$#%#&#*#=#-#. ;#>#>#>#,#>+'#)#!#~#{#k ]#^#.   ",
"      /#(#_#:#<#[#}#|#1#. . 2#3#4#|+5#6#. m@7#8#9#0#a#b#c#d#    ",
"      . e#f#g#h#i#j#k#l#m#n#o#. . . o#n#p#q#r#s#t#u#v#w#x#.     ",
"        y#z#A#B#~#C#0#D#E#F#W@G#H#I#J#K#L#M#N#O#P#Q#R#S#.       ",
"          T#I+D#U#V#W#s#X#Y#Z#`# $A#.$+$@$#$$$%$&$*$=$-$        ",
"            ;$>$w#,$'$)$$$!$~${$]$^$/$($_$:$<$[$}$S#|$          ",
"              1$2$3$A#4$5$6$7$8$9#W#9$0$a$b$c$d$e$.             ",
"                . f$g$3$9#h$i$k k j$k$l$m$n$o$p$.               ",
"                    . q$r$s$t$u$u$v$w$x$y$/@.                   ",
"                          . . . . . . .                         "};
