/* XPM */
static char * C:\Users\kenny\Desktop\ignitecoin16_xpm[] = {
"16 16 176 2",
"  	c None",
". 	c #1C0514",
"+ 	c #2C1413",
"@ 	c #180214",
"# 	c #504C4F",
"$ 	c #5A421C",
"% 	c #C8752C",
"& 	c #CB5E30",
"* 	c #BB4C2E",
"= 	c #B4382D",
"- 	c #A71C2A",
"; 	c #6F101F",
"> 	c #390617",
", 	c #898689",
"' 	c #A4A5A9",
") 	c #705324",
"! 	c #C83531",
"~ 	c #2A0416",
"{ 	c #534E51",
"] 	c #58353B",
"^ 	c #AC1C2B",
"/ 	c #A41B2A",
"( 	c #413B40",
"_ 	c #868588",
": 	c #1D1C2D",
"< 	c #574741",
"[ 	c #815149",
"} 	c #440819",
"| 	c #68605F",
"1 	c #B5B3B4",
"2 	c #BAB7B9",
"3 	c #4F4A4E",
"4 	c #6C0F1F",
"5 	c #6B0E1E",
"6 	c #B67827",
"7 	c #A26934",
"8 	c #9F8775",
"9 	c #AA927D",
"0 	c #695F5C",
"a 	c #57403B",
"b 	c #C0AEA0",
"c 	c #9C8B7F",
"d 	c #B0A6A0",
"e 	c #D6D4D5",
"f 	c #921726",
"g 	c #797678",
"h 	c #3D2518",
"i 	c #C76B2C",
"j 	c #8B827E",
"k 	c #BDA692",
"l 	c #867162",
"m 	c #290416",
"n 	c #7F4A44",
"o 	c #A59991",
"p 	c #918681",
"q 	c #8B8481",
"r 	c #B7B5B6",
"s 	c #5F524E",
"t 	c #6A5349",
"u 	c #A3A1A4",
"v 	c #706B6E",
"w 	c #232133",
"x 	c #635E60",
"y 	c #93867F",
"z 	c #736A67",
"A 	c #7B1221",
"B 	c #905E54",
"C 	c #B79D86",
"D 	c #B09A88",
"E 	c #594943",
"F 	c #807875",
"G 	c #CEBEB3",
"H 	c #837C7C",
"I 	c #8A8789",
"J 	c #87878C",
"K 	c #233448",
"L 	c #1C1A2B",
"M 	c #2C2229",
"N 	c #837872",
"O 	c #857263",
"P 	c #775F5B",
"Q 	c #68564C",
"R 	c #50403A",
"S 	c #564842",
"T 	c #9E8673",
"U 	c #806E61",
"V 	c #A19FA1",
"W 	c #837D7C",
"X 	c #BFAFA5",
"Y 	c #D5C7BD",
"Z 	c #C8B6A7",
"` 	c #836F60",
" .	c #7B7371",
"..	c #BBA593",
"+.	c #B7A393",
"@.	c #52494A",
"#.	c #A09EA0",
"$.	c #72451F",
"%.	c #310A16",
"&.	c #B6632B",
"*.	c #9B5B27",
"=.	c #9F5627",
"-.	c #6D2E1E",
";.	c #190415",
">.	c #6F6A6A",
",.	c #928781",
"'.	c #9D8F87",
").	c #4A292D",
"!.	c #4B0819",
"~.	c #605A5B",
"{.	c #3C353A",
"].	c #4F5058",
"^.	c #9A9899",
"/.	c #87614D",
"(.	c #A36B26",
"_.	c #1F273A",
":.	c #1E2335",
"<.	c #875121",
"[.	c #BB6A2A",
"}.	c #2F1716",
"|.	c #670E1E",
"1.	c #390618",
"2.	c #641323",
"3.	c #353641",
"4.	c #20293C",
"5.	c #989A9F",
"6.	c #555154",
"7.	c #7A7779",
"8.	c #9C9DA1",
"9.	c #96979C",
"0.	c #828388",
"a.	c #624A25",
"b.	c #8A691E",
"c.	c #511E1B",
"d.	c #C02030",
"e.	c #B41D2D",
"f.	c #621323",
"g.	c #73767D",
"h.	c #C2C3C7",
"i.	c #80848B",
"j.	c #A7A6A9",
"k.	c #B8B6B7",
"l.	c #96989E",
"m.	c #AFB0B5",
"n.	c #8E9298",
"o.	c #50555F",
"p.	c #1D2234",
"q.	c #1D1F31",
"r.	c #55575F",
"s.	c #A1A3A8",
"t.	c #D0D1D4",
"u.	c #B2B4B8",
"v.	c #625E61",
"w.	c #AEADAF",
"x.	c #B0B2B6",
"y.	c #C8C9CC",
"z.	c #CCCDD0",
"A.	c #C1C2C6",
"B.	c #B8BABD",
"C.	c #C5C5C9",
"D.	c #91959A",
"E.	c #A4A5AA",
"F.	c #7D7A7D",
"G.	c #999698",
"H.	c #AEADB1",
"I.	c #A5A7AC",
"J.	c #93959B",
"K.	c #93969C",
"L.	c #7E828A",
"M.	c #A0A2A7",
"N.	c #A9A8AA",
"O.	c #615D60",
"P.	c #838082",
"Q.	c #A4A2A3",
"R.	c #A5A3A5",
"S.	c #534E52",
"              . +   @           ",
"        # $ % & * = - ; >       ",
"      , ' ) ! ~ @ { ] ^ / @     ",
"    ( _ : < [ } | 1 2 3 4 5     ",
"  @ 6 7 8 9 0 a b c d e @ f g   ",
"  h i j k l m n o p q r s t u   ",
"  v w x y z @ A B C D E F G H I ",
"  J K L @ M N O P Q R S T C U V ",
"@ @ @ @ @ W X Y Z ` ~  ...+.@.#.",
"$.%.&.*.=.-.;.>.,.'.).!.~.{.].^.",
"  /.(._.:.<.[.}.|.} 1.2.3.4.5.6.",
"  7.8.9.0.a.b.c.d.e.f.g.h.i.j.  ",
"    k.l.m.n.o.p.q.r.s.t.u.' v.  ",
"      w.x.y.z.A.B.u.C.D.E.F.    ",
"        G.H.I.J.K.L.M.N.O.      ",
"            P.Q.R.G.S.          "};
